<svg xmlns="http://www.w3.org/2000/svg" width="1920" height="1080"><path d="M0,1324L-177,1343L487,1341Z" fill="#a14769" stroke="#a14769" stroke-width="1.51"/><path d="M542,-263L849,-230L1002,-224Z" fill="#df8a5f" stroke="#df8a5f" stroke-width="1.51"/><path d="M769,1329L487,1341L1383,1335Z" fill="#a596a8" stroke="#a596a8" stroke-width="1.51"/><path d="M1002,-224L1437,-217L1619,-242Z" fill="#cc8884" stroke="#cc8884" stroke-width="1.51"/><path d="M542,-263L1002,-224L1619,-242Z" fill="#dd9179" stroke="#dd9179" stroke-width="1.51"/><path d="M542,-263L1619,-242L1762,-240Z" fill="#cd8885" stroke="#cd8885" stroke-width="1.51"/><path d="M1827,1321L1383,1335L2062,1318Z" fill="#526fb3" stroke="#526fb3" stroke-width="1.51"/><path d="M1929,1289L1827,1321L2062,1318Z" fill="#405da9" stroke="#405da9" stroke-width="1.51"/><path d="M2052,-102L1923,-72L2076,144Z" fill="#aa5c72" stroke="#aa5c72" stroke-width="1.51"/><path d="M1923,-72L1898,119L2076,144Z" fill="#b0707c" stroke="#b0707c" stroke-width="1.51"/><path d="M2070,684L1915,825L2093,849Z" fill="#869ccc" stroke="#869ccc" stroke-width="1.51"/><path d="M1762,-240L1900,-158L2095,-162Z" fill="#9e566c" stroke="#9e566c" stroke-width="1.51"/><path d="M2076,144L2086,215L2095,-162Z" fill="#a95e77" stroke="#a95e77" stroke-width="1.51"/><path d="M2052,-102L2076,144L2095,-162Z" fill="#a44f6c" stroke="#a44f6c" stroke-width="1.51"/><path d="M1941,664L2070,684L2101,516Z" fill="#9ea3c1" stroke="#9ea3c1" stroke-width="1.51"/><path d="M2074,353L1970,348L2101,516Z" fill="#a998a2" stroke="#a998a2" stroke-width="1.51"/><path d="M2086,215L2074,353L2101,516Z" fill="#a88e99" stroke="#a88e99" stroke-width="1.51"/><path d="M2070,684L2093,849L2101,516Z" fill="#949ac8" stroke="#949ac8" stroke-width="1.51"/><path d="M2095,-162L2086,215L2101,516Z" fill="#aa7382" stroke="#aa7382" stroke-width="1.51"/><path d="M2093,849L1972,1027L2111,1035Z" fill="#6686be" stroke="#6686be" stroke-width="1.51"/><path d="M1989,1159L2062,1318L2120,1087Z" fill="#4365ac" stroke="#4365ac" stroke-width="1.51"/><path d="M2111,1035L1972,1027L2120,1087Z" fill="#587ab8" stroke="#587ab8" stroke-width="1.51"/><path d="M1972,1027L1989,1159L2120,1087Z" fill="#5379b7" stroke="#5379b7" stroke-width="1.51"/><path d="M2093,849L2111,1035L2120,1087Z" fill="#617dba" stroke="#617dba" stroke-width="1.51"/><path d="M2101,516L2093,849L2120,1087Z" fill="#7e8fc5" stroke="#7e8fc5" stroke-width="1.51"/><path d="M1970,348L2074,353L2086,215Z" fill="#ab8c94" stroke="#ab8c94" stroke-width="1.51"/><path d="M1915,825L1972,1027L2093,849Z" fill="#7498c8" stroke="#7498c8" stroke-width="1.51"/><path d="M1908,534L1941,664L2101,516Z" fill="#a5adbd" stroke="#a5adbd" stroke-width="1.51"/><path d="M1970,348L1908,534L2101,516Z" fill="#aaa6ad" stroke="#aaa6ad" stroke-width="1.51"/><path d="M1661,1275L1383,1335L1827,1321Z" fill="#617fbb" stroke="#617fbb" stroke-width="1.51"/><path d="M1989,1159L1929,1289L2062,1318Z" fill="#4161ab" stroke="#4161ab" stroke-width="1.51"/><path d="M1941,664L1915,825L2070,684Z" fill="#92a8d2" stroke="#92a8d2" stroke-width="1.51"/><path d="M1900,-158L2052,-102L2095,-162Z" fill="#9f4b68" stroke="#9f4b68" stroke-width="1.51"/><path d="M1924,184L1970,348L2086,215Z" fill="#af8c8f" stroke="#af8c8f" stroke-width="1.51"/><path d="M2076,144L1924,184L2086,215Z" fill="#ad7b85" stroke="#ad7b85" stroke-width="1.51"/><path d="M1898,119L1924,184L2076,144Z" fill="#b07f85" stroke="#b07f85" stroke-width="1.51"/><path d="M1900,-158L1923,-72L2052,-102Z" fill="#a6576c" stroke="#a6576c" stroke-width="1.51"/><path d="M1924,184L1834,195L1970,348Z" fill="#b39693" stroke="#b39693" stroke-width="1.51"/><path d="M1835,443L1908,534L1970,348Z" fill="#afb0af" stroke="#afb0af" stroke-width="1.51"/><path d="M1915,825L1731,992L1972,1027Z" fill="#72a1cc" stroke="#72a1cc" stroke-width="1.51"/><path d="M1972,1027L1798,1190L1989,1159Z" fill="#5081bb" stroke="#5081bb" stroke-width="1.51"/><path d="M1798,1190L1929,1289L1989,1159Z" fill="#4674b4" stroke="#4674b4" stroke-width="1.51"/><path d="M1822,801L1915,825L1941,664Z" fill="#90b1d5" stroke="#90b1d5" stroke-width="1.51"/><path d="M1834,195L1835,443L1970,348Z" fill="#b4a6a1" stroke="#b4a6a1" stroke-width="1.51"/><path d="M1731,992L1798,1190L1972,1027Z" fill="#6195c4" stroke="#6195c4" stroke-width="1.51"/><path d="M1730,743L1822,801L1827,576Z" fill="#a1c1de" stroke="#a1c1de" stroke-width="1.51"/><path d="M1768,-65L1765,94L1898,119Z" fill="#bc8183" stroke="#bc8183" stroke-width="1.51"/><path d="M1822,801L1731,992L1915,825Z" fill="#83b1d5" stroke="#83b1d5" stroke-width="1.51"/><path d="M1768,-65L1898,119L1923,-72Z" fill="#b4737b" stroke="#b4737b" stroke-width="1.51"/><path d="M1798,1190L1827,1321L1929,1289Z" fill="#4a70b2" stroke="#4a70b2" stroke-width="1.51"/><path d="M1908,534L1827,576L1941,664Z" fill="#a8b8c5" stroke="#a8b8c5" stroke-width="1.51"/><path d="M1827,576L1822,801L1941,664Z" fill="#9fbad6" stroke="#9fbad6" stroke-width="1.51"/><path d="M1900,-158L1768,-65L1923,-72Z" fill="#af6673" stroke="#af6673" stroke-width="1.51"/><path d="M1898,119L1834,195L1924,184Z" fill="#b68d8b" stroke="#b68d8b" stroke-width="1.51"/><path d="M1834,195L1657,348L1835,443Z" fill="#bcb3a6" stroke="#bcb3a6" stroke-width="1.51"/><path d="M1835,443L1827,576L1908,534Z" fill="#b1bdbd" stroke="#b1bdbd" stroke-width="1.51"/><path d="M1762,-240L1768,-65L1900,-158Z" fill="#ac6672" stroke="#ac6672" stroke-width="1.51"/><path d="M1765,94L1834,195L1898,119Z" fill="#bb8e8b" stroke="#bb8e8b" stroke-width="1.51"/><path d="M1662,801L1731,992L1822,801Z" fill="#8cbcda" stroke="#8cbcda" stroke-width="1.51"/><path d="M1680,538L1730,743L1827,576Z" fill="#b1cad3" stroke="#b1cad3" stroke-width="1.51"/><path d="M1798,1190L1661,1275L1827,1321Z" fill="#547ab8" stroke="#547ab8" stroke-width="1.51"/><path d="M1590,222L1657,348L1834,195Z" fill="#c5b3a0" stroke="#c5b3a0" stroke-width="1.51"/><path d="M1637,133L1590,222L1834,195Z" fill="#c7a898" stroke="#c7a898" stroke-width="1.51"/><path d="M1680,538L1827,576L1835,443Z" fill="#b7c6c1" stroke="#b7c6c1" stroke-width="1.51"/><path d="M1657,348L1680,538L1835,443Z" fill="#bec6b9" stroke="#bec6b9" stroke-width="1.51"/><path d="M1765,94L1637,133L1834,195Z" fill="#c29990" stroke="#c29990" stroke-width="1.51"/><path d="M1731,992L1625,1183L1798,1190Z" fill="#6599c7" stroke="#6599c7" stroke-width="1.51"/><path d="M1762,-240L1686,-70L1768,-65Z" fill="#b77176" stroke="#b77176" stroke-width="1.51"/><path d="M1730,743L1662,801L1822,801Z" fill="#9ac2de" stroke="#9ac2de" stroke-width="1.51"/><path d="M1680,538L1607,677L1730,743Z" fill="#b3d2dc" stroke="#b3d2dc" stroke-width="1.51"/><path d="M1686,-70L1765,94L1768,-65Z" fill="#bf8181" stroke="#bf8181" stroke-width="1.51"/><path d="M1625,1183L1661,1275L1798,1190Z" fill="#5c8bc0" stroke="#5c8bc0" stroke-width="1.51"/><path d="M1236,1283L769,1329L1383,1335Z" fill="#979bc3" stroke="#979bc3" stroke-width="1.51"/><path d="M1662,801L1584,981L1731,992Z" fill="#89bdda" stroke="#89bdda" stroke-width="1.51"/><path d="M1619,-242L1686,-70L1762,-240Z" fill="#b37278" stroke="#b37278" stroke-width="1.51"/><path d="M1686,-70L1637,133L1765,94Z" fill="#c7908a" stroke="#c7908a" stroke-width="1.51"/><path d="M1584,981L1625,1183L1731,992Z" fill="#76add1" stroke="#76add1" stroke-width="1.51"/><path d="M1607,677L1662,801L1730,743Z" fill="#a7cee3" stroke="#a7cee3" stroke-width="1.51"/><path d="M1049,1259L769,1329L1236,1283Z" fill="#a2a2ba" stroke="#a2a2ba" stroke-width="1.51"/><path d="M1002,-224L1212,-170L1437,-217Z" fill="#dc9188" stroke="#dc9188" stroke-width="1.51"/><path d="M1449,1237L1383,1335L1661,1275Z" fill="#7190c4" stroke="#7190c4" stroke-width="1.51"/><path d="M1525,891L1584,981L1662,801Z" fill="#97c8e0" stroke="#97c8e0" stroke-width="1.51"/><path d="M1657,348L1514,399L1680,538Z" fill="#c8d0bc" stroke="#c8d0bc" stroke-width="1.51"/><path d="M1473,-18L1637,133L1686,-70Z" fill="#ce948a" stroke="#ce948a" stroke-width="1.51"/><path d="M1619,-242L1473,-18L1686,-70Z" fill="#c7827f" stroke="#c7827f" stroke-width="1.51"/><path d="M1453,490L1607,677L1680,538Z" fill="#c7ddd3" stroke="#c7ddd3" stroke-width="1.51"/><path d="M1514,399L1453,490L1680,538Z" fill="#cedcc7" stroke="#cedcc7" stroke-width="1.51"/><path d="M1437,-217L1473,-18L1619,-242Z" fill="#c88480" stroke="#c88480" stroke-width="1.51"/><path d="M1584,981L1438,1111L1625,1183Z" fill="#7cafd3" stroke="#7cafd3" stroke-width="1.51"/><path d="M1473,-18L1465,110L1637,133Z" fill="#d7a493" stroke="#d7a493" stroke-width="1.51"/><path d="M1590,222L1514,399L1657,348Z" fill="#cec7af" stroke="#cec7af" stroke-width="1.51"/><path d="M1607,677L1525,891L1662,801Z" fill="#a7d1e4" stroke="#a7d1e4" stroke-width="1.51"/><path d="M1625,1183L1449,1237L1661,1275Z" fill="#6993c5" stroke="#6993c5" stroke-width="1.51"/><path d="M1429,742L1525,891L1607,677Z" fill="#b2d9ea" stroke="#b2d9ea" stroke-width="1.51"/><path d="M1490,189L1590,222L1637,133Z" fill="#d2b29d" stroke="#d2b29d" stroke-width="1.51"/><path d="M1465,110L1490,189L1637,133Z" fill="#d7b09b" stroke="#d7b09b" stroke-width="1.51"/><path d="M1438,1111L1449,1237L1625,1183Z" fill="#76a4ce" stroke="#76a4ce" stroke-width="1.51"/><path d="M1450,990L1438,1111L1584,981Z" fill="#8cbfdb" stroke="#8cbfdb" stroke-width="1.51"/><path d="M1453,490L1429,742L1607,677Z" fill="#c8e3e2" stroke="#c8e3e2" stroke-width="1.51"/><path d="M1490,189L1514,399L1590,222Z" fill="#d5c4aa" stroke="#d5c4aa" stroke-width="1.51"/><path d="M1212,-170L1327,-174L1437,-217Z" fill="#d58d86" stroke="#d58d86" stroke-width="1.51"/><path d="M1525,891L1450,990L1584,981Z" fill="#95c6df" stroke="#95c6df" stroke-width="1.51"/><path d="M1325,714L1429,742L1453,490Z" fill="#d1eae8" stroke="#d1eae8" stroke-width="1.51"/><path d="M1437,-217L1343,-84L1473,-18Z" fill="#d89185" stroke="#d89185" stroke-width="1.51"/><path d="M1349,215L1339,361L1490,189Z" fill="#e3cdad" stroke="#e3cdad" stroke-width="1.51"/><path d="M1490,189L1339,361L1514,399Z" fill="#dcd3b4" stroke="#dcd3b4" stroke-width="1.51"/><path d="M1327,848L1450,990L1525,891Z" fill="#a5d4e6" stroke="#a5d4e6" stroke-width="1.51"/><path d="M1429,742L1327,848L1525,891Z" fill="#b4ddec" stroke="#b4ddec" stroke-width="1.51"/><path d="M1339,361L1453,490L1514,399Z" fill="#dbe1c3" stroke="#dbe1c3" stroke-width="1.51"/><path d="M1285,499L1325,714L1453,490Z" fill="#deefdc" stroke="#deefdc" stroke-width="1.51"/><path d="M1384,112L1465,110L1473,-18Z" fill="#e0aa97" stroke="#e0aa97" stroke-width="1.51"/><path d="M1465,110L1384,112L1490,189Z" fill="#e0b69d" stroke="#e0b69d" stroke-width="1.51"/><path d="M1384,112L1349,215L1490,189Z" fill="#e3bfa2" stroke="#e3bfa2" stroke-width="1.51"/><path d="M1327,-174L1343,-84L1437,-217Z" fill="#d68e85" stroke="#d68e85" stroke-width="1.51"/><path d="M1343,-84L1384,112L1473,-18Z" fill="#e1a291" stroke="#e1a291" stroke-width="1.51"/><path d="M1438,1111L1318,1111L1449,1237Z" fill="#85b0d4" stroke="#85b0d4" stroke-width="1.51"/><path d="M1327,848L1287,994L1450,990Z" fill="#a9d3e6" stroke="#a9d3e6" stroke-width="1.51"/><path d="M1318,1111L1438,1111L1450,990Z" fill="#90bfdb" stroke="#90bfdb" stroke-width="1.51"/><path d="M1287,994L1318,1111L1450,990Z" fill="#9bc8e0" stroke="#9bc8e0" stroke-width="1.51"/><path d="M1339,361L1285,499L1453,490Z" fill="#e2e8ca" stroke="#e2e8ca" stroke-width="1.51"/><path d="M1236,1283L1383,1335L1449,1237Z" fill="#8198c9" stroke="#8198c9" stroke-width="1.51"/><path d="M1318,1111L1236,1283L1449,1237Z" fill="#87a8d1" stroke="#87a8d1" stroke-width="1.51"/><path d="M1325,714L1327,848L1429,742Z" fill="#c5e5f0" stroke="#c5e5f0" stroke-width="1.51"/><path d="M1285,499L1209,667L1325,714Z" fill="#e1f2e8" stroke="#e1f2e8" stroke-width="1.51"/><path d="M1138,-15L1164,96L1343,-84Z" fill="#f2aa96" stroke="#f2aa96" stroke-width="1.51"/><path d="M1164,96L1349,215L1384,112Z" fill="#edbfa2" stroke="#edbfa2" stroke-width="1.51"/><path d="M1343,-84L1164,96L1384,112Z" fill="#edac98" stroke="#edac98" stroke-width="1.51"/><path d="M1176,549L1209,667L1285,499Z" fill="#ecf6e1" stroke="#ecf6e1" stroke-width="1.51"/><path d="M1181,1123L1236,1283L1318,1111Z" fill="#95b4d7" stroke="#95b4d7" stroke-width="1.51"/><path d="M1325,714L1162,824L1327,848Z" fill="#cae8f2" stroke="#cae8f2" stroke-width="1.51"/><path d="M1229,397L1285,499L1339,361Z" fill="#eae9c8" stroke="#eae9c8" stroke-width="1.51"/><path d="M1327,-174L1212,-170L1343,-84Z" fill="#df9387" stroke="#df9387" stroke-width="1.51"/><path d="M1229,397L1339,361L1349,215Z" fill="#eadcb9" stroke="#eadcb9" stroke-width="1.51"/><path d="M1150,214L1229,397L1349,215Z" fill="#f1d8b4" stroke="#f1d8b4" stroke-width="1.51"/><path d="M1164,96L1150,214L1349,215Z" fill="#f5c9a8" stroke="#f5c9a8" stroke-width="1.51"/><path d="M1178,977L1287,994L1327,848Z" fill="#b4d9e9" stroke="#b4d9e9" stroke-width="1.51"/><path d="M1212,-170L1138,-15L1343,-84Z" fill="#ea9d8c" stroke="#ea9d8c" stroke-width="1.51"/><path d="M1287,994L1181,1123L1318,1111Z" fill="#a0c5df" stroke="#a0c5df" stroke-width="1.51"/><path d="M1209,667L1162,824L1325,714Z" fill="#d8eff6" stroke="#d8eff6" stroke-width="1.51"/><path d="M1162,824L1178,977L1327,848Z" fill="#c1e3ef" stroke="#c1e3ef" stroke-width="1.51"/><path d="M1229,397L1176,549L1285,499Z" fill="#eff2d2" stroke="#eff2d2" stroke-width="1.51"/><path d="M1178,977L1181,1123L1287,994Z" fill="#abcfe5" stroke="#abcfe5" stroke-width="1.51"/><path d="M93,1310L0,1324L487,1341Z" fill="#a65270" stroke="#a65270" stroke-width="1.51"/><path d="M98,-239L251,-224L542,-263Z" fill="#d54f38" stroke="#d54f38" stroke-width="1.51"/><path d="M1082,697L1162,824L1209,667Z" fill="#e0f2f2" stroke="#e0f2f2" stroke-width="1.51"/><path d="M1150,214L981,429L1229,397Z" fill="#f8e7b7" stroke="#f8e7b7" stroke-width="1.51"/><path d="M1054,549L1176,549L1229,397Z" fill="#f4f6d0" stroke="#f4f6d0" stroke-width="1.51"/><path d="M1181,1123L1065,1160L1236,1283Z" fill="#9cb5d3" stroke="#9cb5d3" stroke-width="1.51"/><path d="M1065,1160L1049,1259L1236,1283Z" fill="#9dacca" stroke="#9dacca" stroke-width="1.51"/><path d="M981,429L1054,549L1229,397Z" fill="#f8f4c3" stroke="#f8f4c3" stroke-width="1.51"/><path d="M996,233L981,429L1150,214Z" fill="#fde1a5" stroke="#fde1a5" stroke-width="1.51"/><path d="M1176,549L1082,697L1209,667Z" fill="#ebf6e8" stroke="#ebf6e8" stroke-width="1.51"/><path d="M1006,-65L1138,-15L1212,-170Z" fill="#f1a185" stroke="#f1a185" stroke-width="1.51"/><path d="M1002,-224L1006,-65L1212,-170Z" fill="#eb9a7b" stroke="#eb9a7b" stroke-width="1.51"/><path d="M1178,977L1014,1014L1181,1123Z" fill="#b2d1db" stroke="#b2d1db" stroke-width="1.51"/><path d="M934,1240L769,1329L1049,1259Z" fill="#a8a4b1" stroke="#a8a4b1" stroke-width="1.51"/><path d="M1054,549L1082,697L1176,549Z" fill="#f2f9da" stroke="#f2f9da" stroke-width="1.51"/><path d="M1162,824L1009,865L1178,977Z" fill="#cae5e5" stroke="#cae5e5" stroke-width="1.51"/><path d="M1009,865L1014,1014L1178,977Z" fill="#c4dedb" stroke="#c4dedb" stroke-width="1.51"/><path d="M1014,1014L1065,1160L1181,1123Z" fill="#aec7d2" stroke="#aec7d2" stroke-width="1.51"/><path d="M1041,67L1150,214L1164,96Z" fill="#fac39a" stroke="#fac39a" stroke-width="1.51"/><path d="M1138,-15L1041,67L1164,96Z" fill="#fab592" stroke="#fab592" stroke-width="1.51"/><path d="M1041,67L996,233L1150,214Z" fill="#fdcd98" stroke="#fdcd98" stroke-width="1.51"/><path d="M1082,697L1009,865L1162,824Z" fill="#daefe7" stroke="#daefe7" stroke-width="1.51"/><path d="M1006,-65L1041,67L1138,-15Z" fill="#f9af86" stroke="#f9af86" stroke-width="1.51"/><path d="M1054,549L917,710L1082,697Z" fill="#f2f9da" stroke="#f2f9da" stroke-width="1.51"/><path d="M917,710L1009,865L1082,697Z" fill="#e6f4de" stroke="#e6f4de" stroke-width="1.51"/><path d="M928,68L996,233L1041,67Z" fill="#ffc68a" stroke="#ffc68a" stroke-width="1.51"/><path d="M1014,1014L882,1098L1065,1160Z" fill="#b6cbc8" stroke="#b6cbc8" stroke-width="1.51"/><path d="M882,1098L934,1240L1065,1160Z" fill="#afbdbe" stroke="#afbdbe" stroke-width="1.51"/><path d="M934,1240L1049,1259L1065,1160Z" fill="#a6b1c0" stroke="#a6b1c0" stroke-width="1.51"/><path d="M1006,-65L928,68L1041,67Z" fill="#feb481" stroke="#feb481" stroke-width="1.51"/><path d="M981,429L849,530L1054,549Z" fill="#fffbb9" stroke="#fffbb9" stroke-width="1.51"/><path d="M849,530L917,710L1054,549Z" fill="#fbfbc7" stroke="#fbfbc7" stroke-width="1.51"/><path d="M872,404L981,429L996,233Z" fill="#ffeca3" stroke="#ffeca3" stroke-width="1.51"/><path d="M836,293L872,404L996,233Z" fill="#ffe198" stroke="#ffe198" stroke-width="1.51"/><path d="M1009,865L856,1006L1014,1014Z" fill="#cadfcf" stroke="#cadfcf" stroke-width="1.51"/><path d="M849,-230L852,-76L1002,-224Z" fill="#eb9669" stroke="#eb9669" stroke-width="1.51"/><path d="M1002,-224L852,-76L1006,-65Z" fill="#f49f6e" stroke="#f49f6e" stroke-width="1.51"/><path d="M852,-76L928,68L1006,-65Z" fill="#fbac75" stroke="#fbac75" stroke-width="1.51"/><path d="M917,710L836,802L1009,865Z" fill="#e4efd4" stroke="#e4efd4" stroke-width="1.51"/><path d="M836,802L856,1006L1009,865Z" fill="#d6e5cd" stroke="#d6e5cd" stroke-width="1.51"/><path d="M856,1006L882,1098L1014,1014Z" fill="#bfd1c5" stroke="#bfd1c5" stroke-width="1.51"/><path d="M928,68L782,218L996,233Z" fill="#ffcc86" stroke="#ffcc86" stroke-width="1.51"/><path d="M782,218L836,293L996,233Z" fill="#ffd78d" stroke="#ffd78d" stroke-width="1.51"/><path d="M872,404L849,530L981,429Z" fill="#fff3ad" stroke="#fff3ad" stroke-width="1.51"/><path d="M542,-263L718,-192L849,-230Z" fill="#df8457" stroke="#df8457" stroke-width="1.51"/><path d="M836,802L748,874L856,1006Z" fill="#d6dfc5" stroke="#d6dfc5" stroke-width="1.51"/><path d="M756,1086L769,1329L882,1098Z" fill="#b1b3af" stroke="#b1b3af" stroke-width="1.51"/><path d="M849,530L774,674L917,710Z" fill="#f8f4c5" stroke="#f8f4c5" stroke-width="1.51"/><path d="M882,1098L769,1329L934,1240Z" fill="#abacb1" stroke="#abacb1" stroke-width="1.51"/><path d="M692,139L782,218L928,68Z" fill="#ffc079" stroke="#ffc079" stroke-width="1.51"/><path d="M852,-76L748,-56L928,68Z" fill="#faa76d" stroke="#faa76d" stroke-width="1.51"/><path d="M748,-56L692,139L928,68Z" fill="#feae70" stroke="#feae70" stroke-width="1.51"/><path d="M780,552L774,674L849,530Z" fill="#fcf3b8" stroke="#fcf3b8" stroke-width="1.51"/><path d="M774,674L836,802L917,710Z" fill="#efefcf" stroke="#efefcf" stroke-width="1.51"/><path d="M849,-230L718,-192L852,-76Z" fill="#eb9160" stroke="#eb9160" stroke-width="1.51"/><path d="M739,393L849,530L872,404Z" fill="#ffeda3" stroke="#ffeda3" stroke-width="1.51"/><path d="M836,293L739,393L872,404Z" fill="#ffe498" stroke="#ffe498" stroke-width="1.51"/><path d="M856,1006L756,1086L882,1098Z" fill="#bec7bb" stroke="#bec7bb" stroke-width="1.51"/><path d="M739,393L780,552L849,530Z" fill="#ffefa7" stroke="#ffefa7" stroke-width="1.51"/><path d="M718,-192L748,-56L852,-76Z" fill="#f2965f" stroke="#f2965f" stroke-width="1.51"/><path d="M748,874L698,968L856,1006Z" fill="#cfd5bc" stroke="#cfd5bc" stroke-width="1.51"/><path d="M698,968L756,1086L856,1006Z" fill="#c4cbb8" stroke="#c4cbb8" stroke-width="1.51"/><path d="M756,1086L612,1275L769,1329Z" fill="#ada1a1" stroke="#ada1a1" stroke-width="1.51"/><path d="M774,674L748,874L836,802Z" fill="#e7e7c8" stroke="#e7e7c8" stroke-width="1.51"/><path d="M782,218L739,393L836,293Z" fill="#ffd98c" stroke="#ffd98c" stroke-width="1.51"/><path d="M315,1293L93,1310L487,1341Z" fill="#aa6178" stroke="#aa6178" stroke-width="1.51"/><path d="M586,92L692,139L748,-56Z" fill="#fca765" stroke="#fca765" stroke-width="1.51"/><path d="M560,1129L612,1275L756,1086Z" fill="#b5a7a0" stroke="#b5a7a0" stroke-width="1.51"/><path d="M612,1275L487,1341L769,1329Z" fill="#a98692" stroke="#a98692" stroke-width="1.51"/><path d="M614,691L748,874L774,674Z" fill="#ede5c1" stroke="#ede5c1" stroke-width="1.51"/><path d="M739,393L585,523L780,552Z" fill="#ffe89e" stroke="#ffe89e" stroke-width="1.51"/><path d="M614,691L774,674L780,552Z" fill="#f8ecb9" stroke="#f8ecb9" stroke-width="1.51"/><path d="M585,523L614,691L780,552Z" fill="#fce7aa" stroke="#fce7aa" stroke-width="1.51"/><path d="M633,204L739,393L782,218Z" fill="#fed181" stroke="#fed181" stroke-width="1.51"/><path d="M692,139L633,204L782,218Z" fill="#fec174" stroke="#fec174" stroke-width="1.51"/><path d="M614,691L538,828L748,874Z" fill="#e8d9b8" stroke="#e8d9b8" stroke-width="1.51"/><path d="M633,204L541,400L739,393Z" fill="#ffd182" stroke="#ffd182" stroke-width="1.51"/><path d="M718,-192L538,-69L748,-56Z" fill="#f18d55" stroke="#f18d55" stroke-width="1.51"/><path d="M538,-69L586,92L748,-56Z" fill="#f7965a" stroke="#f7965a" stroke-width="1.51"/><path d="M698,968L619,984L756,1086Z" fill="#c7c6b1" stroke="#c7c6b1" stroke-width="1.51"/><path d="M619,984L560,1129L756,1086Z" fill="#c1b8a9" stroke="#c1b8a9" stroke-width="1.51"/><path d="M619,984L698,968L748,874Z" fill="#d1cfb6" stroke="#d1cfb6" stroke-width="1.51"/><path d="M538,828L619,984L748,874Z" fill="#d9d0b3" stroke="#d9d0b3" stroke-width="1.51"/><path d="M541,400L585,523L739,393Z" fill="#ffdc8f" stroke="#ffdc8f" stroke-width="1.51"/><path d="M251,-224L438,-222L542,-263Z" fill="#d8613e" stroke="#d8613e" stroke-width="1.51"/><path d="M542,-263L538,-69L718,-192Z" fill="#e57e4d" stroke="#e57e4d" stroke-width="1.51"/><path d="M586,92L633,204L692,139Z" fill="#fdb26a" stroke="#fdb26a" stroke-width="1.51"/><path d="M424,231L430,351L541,400Z" fill="#ffbe70" stroke="#ffbe70" stroke-width="1.51"/><path d="M538,828L463,895L619,984Z" fill="#dac6a9" stroke="#dac6a9" stroke-width="1.51"/><path d="M586,92L424,231L633,204Z" fill="#fdaf64" stroke="#fdaf64" stroke-width="1.51"/><path d="M424,231L541,400L633,204Z" fill="#febe6f" stroke="#febe6f" stroke-width="1.51"/><path d="M438,-222L538,-69L542,-263Z" fill="#e27245" stroke="#e27245" stroke-width="1.51"/><path d="M380,529L391,728L585,523Z" fill="#fdd197" stroke="#fdd197" stroke-width="1.51"/><path d="M560,1129L487,1341L612,1275Z" fill="#ae8d91" stroke="#ae8d91" stroke-width="1.51"/><path d="M585,523L391,728L614,691Z" fill="#fad8a7" stroke="#fad8a7" stroke-width="1.51"/><path d="M465,1110L560,1129L619,984Z" fill="#c2ad9e" stroke="#c2ad9e" stroke-width="1.51"/><path d="M444,943L465,1110L619,984Z" fill="#cab49f" stroke="#cab49f" stroke-width="1.51"/><path d="M463,895L444,943L619,984Z" fill="#d5bda4" stroke="#d5bda4" stroke-width="1.51"/><path d="M438,-222L462,-85L538,-69Z" fill="#eb7543" stroke="#eb7543" stroke-width="1.51"/><path d="M391,728L538,828L614,691Z" fill="#f0d0ae" stroke="#f0d0ae" stroke-width="1.51"/><path d="M411,113L424,231L586,92Z" fill="#fca15a" stroke="#fca15a" stroke-width="1.51"/><path d="M462,-85L411,113L538,-69Z" fill="#f5854c" stroke="#f5854c" stroke-width="1.51"/><path d="M465,1110L487,1341L560,1129Z" fill="#b39491" stroke="#b39491" stroke-width="1.51"/><path d="M541,400L380,529L585,523Z" fill="#ffd48a" stroke="#ffd48a" stroke-width="1.51"/><path d="M538,-69L411,113L586,92Z" fill="#fa9255" stroke="#fa9255" stroke-width="1.51"/><path d="M465,1110L315,1293L487,1341Z" fill="#af7f86" stroke="#af7f86" stroke-width="1.51"/><path d="M430,351L380,529L541,400Z" fill="#ffc87e" stroke="#ffc87e" stroke-width="1.51"/><path d="M391,728L463,895L538,828Z" fill="#e7c6a7" stroke="#e7c6a7" stroke-width="1.51"/><path d="M309,-114L411,113L462,-85Z" fill="#f27846" stroke="#f27846" stroke-width="1.51"/><path d="M391,728L340,880L463,895Z" fill="#e5bda1" stroke="#e5bda1" stroke-width="1.51"/><path d="M444,943L313,981L465,1110Z" fill="#cba897" stroke="#cba897" stroke-width="1.51"/><path d="M380,529L302,573L391,728Z" fill="#fdc593" stroke="#fdc593" stroke-width="1.51"/><path d="M309,-114L289,102L411,113Z" fill="#f57948" stroke="#f57948" stroke-width="1.51"/><path d="M438,-222L309,-114L462,-85Z" fill="#e7693e" stroke="#e7693e" stroke-width="1.51"/><path d="M245,1120L315,1293L465,1110Z" fill="#b68486" stroke="#b68486" stroke-width="1.51"/><path d="M313,981L245,1120L465,1110Z" fill="#c4978e" stroke="#c4978e" stroke-width="1.51"/><path d="M340,880L444,943L463,895Z" fill="#dab79f" stroke="#dab79f" stroke-width="1.51"/><path d="M411,113L333,247L424,231Z" fill="#fca05a" stroke="#fca05a" stroke-width="1.51"/><path d="M267,367L380,529L430,351Z" fill="#ffbc76" stroke="#ffbc76" stroke-width="1.51"/><path d="M424,231L333,247L430,351Z" fill="#fdad65" stroke="#fdad65" stroke-width="1.51"/><path d="M340,880L313,981L444,943Z" fill="#d7ad99" stroke="#d7ad99" stroke-width="1.51"/><path d="M251,-224L309,-114L438,-222Z" fill="#de5a3a" stroke="#de5a3a" stroke-width="1.51"/><path d="M333,247L267,367L430,351Z" fill="#fdae68" stroke="#fdae68" stroke-width="1.51"/><path d="M289,102L333,247L411,113Z" fill="#fa9253" stroke="#fa9253" stroke-width="1.51"/><path d="M302,573L228,686L391,728Z" fill="#f9bc98" stroke="#f9bc98" stroke-width="1.51"/><path d="M267,367L302,573L380,529Z" fill="#ffbd7d" stroke="#ffbd7d" stroke-width="1.51"/><path d="M228,686L340,880L391,728Z" fill="#efb89f" stroke="#efb89f" stroke-width="1.51"/><path d="M175,76L289,102L309,-114Z" fill="#f36c42" stroke="#f36c42" stroke-width="1.51"/><path d="M289,102L190,186L333,247Z" fill="#f98d51" stroke="#f98d51" stroke-width="1.51"/><path d="M88,829L313,981L340,880Z" fill="#dca493" stroke="#dca493" stroke-width="1.51"/><path d="M228,686L88,829L340,880Z" fill="#e9a996" stroke="#e9a996" stroke-width="1.51"/><path d="M267,367L96,543L302,573Z" fill="#feb278" stroke="#feb278" stroke-width="1.51"/><path d="M190,186L267,367L333,247Z" fill="#fb9b5b" stroke="#fb9b5b" stroke-width="1.51"/><path d="M86,416L96,543L267,367Z" fill="#faa66b" stroke="#faa66b" stroke-width="1.51"/><path d="M98,-91L175,76L309,-114Z" fill="#ea5938" stroke="#ea5938" stroke-width="1.51"/><path d="M88,829L114,1022L313,981Z" fill="#d2958b" stroke="#d2958b" stroke-width="1.51"/><path d="M114,1022L245,1120L313,981Z" fill="#c78e88" stroke="#c78e88" stroke-width="1.51"/><path d="M245,1120L92,1187L315,1293Z" fill="#b1717c" stroke="#b1717c" stroke-width="1.51"/><path d="M92,1187L93,1310L315,1293Z" fill="#aa5e73" stroke="#aa5e73" stroke-width="1.51"/><path d="M251,-224L98,-91L309,-114Z" fill="#e14c33" stroke="#e14c33" stroke-width="1.51"/><path d="M150,671L228,686L302,573Z" fill="#f9b38f" stroke="#f9b38f" stroke-width="1.51"/><path d="M96,543L150,671L302,573Z" fill="#fab085" stroke="#fab085" stroke-width="1.51"/><path d="M175,76L190,186L289,102Z" fill="#f57a48" stroke="#f57a48" stroke-width="1.51"/><path d="M150,671L88,829L228,686Z" fill="#f0a894" stroke="#f0a894" stroke-width="1.51"/><path d="M98,-239L98,-91L251,-224Z" fill="#d63f2f" stroke="#d63f2f" stroke-width="1.51"/><path d="M190,186L86,416L267,367Z" fill="#f99a5d" stroke="#f99a5d" stroke-width="1.51"/><path d="M38,390L86,416L190,186Z" fill="#f59459" stroke="#f59459" stroke-width="1.51"/><path d="M114,1022L92,1187L245,1120Z" fill="#ba7a7e" stroke="#ba7a7e" stroke-width="1.51"/><path d="M2,211L38,390L190,186Z" fill="#f1864f" stroke="#f1864f" stroke-width="1.51"/><path d="M88,829L11,878L114,1022Z" fill="#d39086" stroke="#d39086" stroke-width="1.51"/><path d="M175,76L2,211L190,186Z" fill="#f17846" stroke="#f17846" stroke-width="1.51"/><path d="M25,693L88,829L150,671Z" fill="#eca18f" stroke="#eca18f" stroke-width="1.51"/><path d="M-47,132L2,211L175,76Z" fill="#ec6b3f" stroke="#ec6b3f" stroke-width="1.51"/><path d="M98,-91L-3,-78L175,76Z" fill="#e54f33" stroke="#e54f33" stroke-width="1.51"/><path d="M-3,-78L-47,132L175,76Z" fill="#e85637" stroke="#e85637" stroke-width="1.51"/><path d="M28,1181L92,1187L114,1022Z" fill="#b57078" stroke="#b57078" stroke-width="1.51"/><path d="M96,543L36,561L150,671Z" fill="#f7a77e" stroke="#f7a77e" stroke-width="1.51"/><path d="M36,561L25,693L150,671Z" fill="#f2a385" stroke="#f2a385" stroke-width="1.51"/><path d="M92,1187L28,1181L93,1310Z" fill="#a95d70" stroke="#a95d70" stroke-width="1.51"/><path d="M28,1181L0,1324L93,1310Z" fill="#a3506b" stroke="#a3506b" stroke-width="1.51"/><path d="M86,416L36,561L96,543Z" fill="#f7a46f" stroke="#f7a46f" stroke-width="1.51"/><path d="M-71,-223L-3,-78L98,-239Z" fill="#ce2b28" stroke="#ce2b28" stroke-width="1.51"/><path d="M98,-239L-3,-78L98,-91Z" fill="#d9382a" stroke="#d9382a" stroke-width="1.51"/><path d="M-35,954L28,1181L114,1022Z" fill="#bd797b" stroke="#bd797b" stroke-width="1.51"/><path d="M11,878L-35,954L114,1022Z" fill="#cb8781" stroke="#cb8781" stroke-width="1.51"/><path d="M38,390L36,561L86,416Z" fill="#f59d67" stroke="#f59d67" stroke-width="1.51"/><path d="M25,693L11,878L88,829Z" fill="#e19789" stroke="#e19789" stroke-width="1.51"/><path d="M-35,954L-149,1110L28,1181Z" fill="#b26e75" stroke="#b26e75" stroke-width="1.51"/><path d="M-162,-38L-47,132L-3,-78Z" fill="#db4531" stroke="#db4531" stroke-width="1.51"/><path d="M-164,833L11,878L25,693Z" fill="#da9086" stroke="#da9086" stroke-width="1.51"/><path d="M-162,564L25,693L36,561Z" fill="#ed9b7a" stroke="#ed9b7a" stroke-width="1.51"/><path d="M-154,387L-162,564L36,561Z" fill="#e9966a" stroke="#e9966a" stroke-width="1.51"/><path d="M-154,387L36,561L38,390Z" fill="#ef9562" stroke="#ef9562" stroke-width="1.51"/><path d="M2,211L-154,387L38,390Z" fill="#eb8653" stroke="#eb8653" stroke-width="1.51"/><path d="M-204,744L-164,833L25,693Z" fill="#d88f87" stroke="#d88f87" stroke-width="1.51"/><path d="M-149,1110L0,1324L28,1181Z" fill="#a3586c" stroke="#a3586c" stroke-width="1.51"/><path d="M-162,-38L-138,118L-47,132Z" fill="#db5036" stroke="#db5036" stroke-width="1.51"/><path d="M-149,1110L-177,1343L0,1324Z" fill="#974867" stroke="#974867" stroke-width="1.51"/><path d="M-162,564L-204,744L25,693Z" fill="#e19483" stroke="#e19483" stroke-width="1.51"/><path d="M-218,246L-154,387L2,211Z" fill="#e1794c" stroke="#e1794c" stroke-width="1.51"/><path d="M-164,833L-35,954L11,878Z" fill="#cc8882" stroke="#cc8882" stroke-width="1.51"/><path d="M-71,-223L-162,-38L-3,-78Z" fill="#cf2c28" stroke="#cf2c28" stroke-width="1.51"/><path d="M-47,132L-138,118L2,211Z" fill="#e4663d" stroke="#e4663d" stroke-width="1.51"/><path d="M-138,118L-218,246L2,211Z" fill="#df6a41" stroke="#df6a41" stroke-width="1.51"/><path d="M-217,-179L-162,-38L-71,-223Z" fill="#c32127" stroke="#c32127" stroke-width="1.51"/><path d="M-203,1024L-149,1110L-35,954Z" fill="#b07178" stroke="#b07178" stroke-width="1.51"/><path d="M-164,833L-203,1024L-35,954Z" fill="#bd7d7e" stroke="#bd7d7e" stroke-width="1.51"/><path d="M-203,1024L-177,1343L-149,1110Z" fill="#9a586e" stroke="#9a586e" stroke-width="1.51"/><path d="M-162,-38L-218,246L-138,118Z" fill="#d6553a" stroke="#d6553a" stroke-width="1.51"/><path d="M-218,246L-162,564L-154,387Z" fill="#dd875b" stroke="#dd875b" stroke-width="1.51"/><path d="M-204,744L-203,1024L-164,833Z" fill="#c18281" stroke="#c18281" stroke-width="1.51"/><path d="M-218,246L-204,744L-162,564Z" fill="#de916a" stroke="#de916a" stroke-width="1.51"/><path d="M-217,-179L-218,246L-162,-38Z" fill="#cd3d31" stroke="#cd3d31" stroke-width="1.51"/><path d="M-204,744L-218,246L-203,1024Z" fill="#d68d83" stroke="#d68d83" stroke-width="1.51"/></svg>